# xmcd
#
# Track frame offsets: 
#        150
#        23537
#        45364
#        64899
#        89537
#        105616
#        128291
#        145060
#        155003
#        175905
#        194664
#        214139
#        234332
#        253127
#        273360
#        294510
#        317177
#        338289
#
# Disc length: 4788 seconds
#
# Revision: 0
# Processed by: cddbd v1.5.2PL0 Copyright (c) Steve Scherf et al.
# Submitted via: ExactAudioCopy v0.95a3
#
DISCID=fc12b212
DTITLE=JOE COCKER - The Best of... CD-1   79'48''
DYEAR=2005
DGENRE=R and B
TTITLE0=Let the Healing Begin
TTITLE1=Across From Midnight
TTITLE2=A to Z
TTITLE3=Please No More
TTITLE4=Fever
TTITLE5=Unchain My Heart
TTITLE6=Hold On (I Feel Our Love Is Changing)
TTITLE7=Lawdy Miss Clawdy
TTITLE8=N'oubliez Jamais
TTITLE9=You Can Leave Your Hat On
TTITLE10=Not Too Young to Die of a Brocken Heart
TTITLE11=You Took It So Hard
TTITLE12=High Lonesome Blue
TTITLE13=My Father's Son
TTITLE14=I Shall Be Released
TTITLE15=Midnight Without You
TTITLE16=Too Cool
TTITLE17=Out of the Rain
EXTD=
EXTT0=
EXTT1=
EXTT2=
EXTT3=
EXTT4=
EXTT5=
EXTT6=
EXTT7=
EXTT8=
EXTT9=
EXTT10=
EXTT11=
EXTT12=
EXTT13=
EXTT14=
EXTT15=
EXTT16=
EXTT17=
PLAYORDER=
